<svg xmlns="http://www.w3.org/2000/svg" width="20" height="20" fill="none" class="Svg Svg--trash"><path fill="#121212" fill-rule="evenodd" d="M12.778 3.256h-1.056V2.222H8.278v1.034H7.222V2.222c0-.592.464-1.081 1.056-1.11h3.444c.592.029 1.056.518 1.056 1.11v1.034ZM7.222 7.222h1.111v8.334h-1.11V7.222Zm5.556 0h-1.111v8.334h1.11V7.222ZM17.1 5H2.778a.556.556 0 0 1 0-1.111H17.1A.556.556 0 0 1 17.1 5ZM4.922 18.889h10.156a1.628 1.628 0 0 0 1.589-1.667V6.24h-1.111v10.983a.517.517 0 0 1-.478.556H4.922a.517.517 0 0 1-.478-.556V6.24h-1.11v10.983a1.628 1.628 0 0 0 1.588 1.667Z" clip-rule="evenodd"/></svg>